<svg width="24" height="24" viewBox="0 0 24 24" fill="none" xmlns="http://www.w3.org/2000/svg">
<circle cx="12" cy="12" r="12" fill="#7E62F0"/>
<mask id="mask0_2571_13725" style="mask-type:alpha" maskUnits="userSpaceOnUse" x="2" y="2" width="20" height="20">
<rect x="2" y="2" width="20" height="20" fill="#D9D9D9"/>
</mask>
<g mask="url(#mask0_2571_13725)">
<path d="M11.9997 16.3545C12.9719 16.3545 13.8019 16.0109 14.4897 15.3237C15.1769 14.6359 15.5205 13.8059 15.5205 12.8337C15.5205 11.8614 15.1769 11.0314 14.4897 10.3437C13.8019 9.65644 12.9719 9.31283 11.9997 9.31283C11.0275 9.31283 10.1975 9.65644 9.50967 10.3437C8.82245 11.0314 8.47884 11.8614 8.47884 12.8337C8.47884 13.8059 8.82245 14.6359 9.50967 15.3237C10.1975 16.0109 11.0275 16.3545 11.9997 16.3545ZM11.9997 15.5628L11.1455 13.6878L9.27051 12.8337L11.1455 11.9795L11.9997 10.1045L12.8538 11.9795L14.7288 12.8337L12.8538 13.6878L11.9997 15.5628ZM5.58301 19.0837C5.16634 19.0837 4.81217 18.9378 4.52051 18.6462C4.22884 18.3545 4.08301 18.0003 4.08301 17.5837V8.08366C4.08301 7.66699 4.22884 7.31283 4.52051 7.02116C4.81217 6.72949 5.16634 6.58366 5.58301 6.58366H8.12467L9.66634 4.91699H14.333L15.8747 6.58366H18.4163C18.833 6.58366 19.1872 6.72949 19.4788 7.02116C19.7705 7.31283 19.9163 7.66699 19.9163 8.08366V17.5837C19.9163 18.0003 19.7705 18.3545 19.4788 18.6462C19.1872 18.9378 18.833 19.0837 18.4163 19.0837H5.58301Z" fill="white"/>
</g>
</svg>
