<svg width="17" height="20" viewBox="0 0 17 20" fill="none" xmlns="http://www.w3.org/2000/svg">
<path d="M8.5 12.075C8.25 12.075 8.04167 11.9873 7.875 11.812C7.70833 11.6373 7.625 11.4333 7.625 11.2C7.625 10.95 7.70833 10.7373 7.875 10.562C8.04167 10.3873 8.25 10.3 8.5 10.3C8.75 10.3 8.95833 10.3873 9.125 10.562C9.29167 10.7373 9.375 10.95 9.375 11.2C9.375 11.4333 9.29167 11.6373 9.125 11.812C8.95833 11.9873 8.75 12.075 8.5 12.075ZM4.5 12.075C4.25 12.075 4.04167 11.9873 3.875 11.812C3.70833 11.6373 3.625 11.4333 3.625 11.2C3.625 10.95 3.70833 10.7373 3.875 10.562C4.04167 10.3873 4.25 10.3 4.5 10.3C4.75 10.3 4.95833 10.3873 5.125 10.562C5.29167 10.7373 5.375 10.95 5.375 11.2C5.375 11.4333 5.29167 11.6373 5.125 11.812C4.95833 11.9873 4.75 12.075 4.5 12.075ZM12.5 12.075C12.25 12.075 12.0417 11.9873 11.875 11.812C11.7083 11.6373 11.625 11.4333 11.625 11.2C11.625 10.95 11.7083 10.7373 11.875 10.562C12.0417 10.3873 12.25 10.3 12.5 10.3C12.75 10.3 12.9583 10.3873 13.125 10.562C13.2917 10.7373 13.375 10.95 13.375 11.2C13.375 11.4333 13.2917 11.6373 13.125 11.812C12.9583 11.9873 12.75 12.075 12.5 12.075ZM8.5 16C8.25 16 8.04167 15.9127 7.875 15.738C7.70833 15.5627 7.625 15.3583 7.625 15.125C7.625 14.875 7.70833 14.6627 7.875 14.488C8.04167 14.3127 8.25 14.225 8.5 14.225C8.75 14.225 8.95833 14.3127 9.125 14.488C9.29167 14.6627 9.375 14.875 9.375 15.125C9.375 15.3583 9.29167 15.5627 9.125 15.738C8.95833 15.9127 8.75 16 8.5 16ZM4.5 16C4.25 16 4.04167 15.9127 3.875 15.738C3.70833 15.5627 3.625 15.3583 3.625 15.125C3.625 14.875 3.70833 14.6627 3.875 14.488C4.04167 14.3127 4.25 14.225 4.5 14.225C4.75 14.225 4.95833 14.3127 5.125 14.488C5.29167 14.6627 5.375 14.875 5.375 15.125C5.375 15.3583 5.29167 15.5627 5.125 15.738C4.95833 15.9127 4.75 16 4.5 16ZM12.5 16C12.25 16 12.0417 15.9127 11.875 15.738C11.7083 15.5627 11.625 15.3583 11.625 15.125C11.625 14.875 11.7083 14.6627 11.875 14.488C12.0417 14.3127 12.25 14.225 12.5 14.225C12.75 14.225 12.9583 14.3127 13.125 14.488C13.2917 14.6627 13.375 14.875 13.375 15.125C13.375 15.3583 13.2917 15.5627 13.125 15.738C12.9583 15.9127 12.75 16 12.5 16ZM1.8 19.5C1.3 19.5 0.875 19.325 0.525 18.975C0.175 18.625 0 18.2 0 17.7V4.3C0 3.8 0.175 3.375 0.525 3.025C0.875 2.675 1.3 2.5 1.8 2.5H3.2V1.15C3.2 0.933333 3.27067 0.75 3.412 0.6C3.554 0.45 3.73333 0.375 3.95 0.375C4.18333 0.375 4.37067 0.45 4.512 0.6C4.654 0.75 4.725 0.933333 4.725 1.15V2.5H12.3V1.125C12.3 0.925 12.375 0.75 12.525 0.6C12.675 0.45 12.85 0.375 13.05 0.375C13.2667 0.375 13.4457 0.45 13.587 0.6C13.729 0.75 13.8 0.925 13.8 1.125V2.5H15.2C15.7 2.5 16.125 2.675 16.475 3.025C16.825 3.375 17 3.8 17 4.3V17.7C17 18.2 16.825 18.625 16.475 18.975C16.125 19.325 15.7 19.5 15.2 19.5H1.8ZM1.8 18H15.2C15.2833 18 15.3543 17.971 15.413 17.913C15.471 17.8543 15.5 17.7833 15.5 17.7V8.3H1.5V17.7C1.5 17.7833 1.52933 17.8543 1.588 17.913C1.646 17.971 1.71667 18 1.8 18Z" fill="#9A9898"/>
</svg>
