<svg width="16" height="16" viewBox="0 0 16 16" fill="none" xmlns="http://www.w3.org/2000/svg">
<path d="M7.99967 15.1673C4.04634 15.1673 0.833008 11.954 0.833008 8.00065C0.833008 4.04732 4.04634 0.833984 7.99967 0.833984C11.953 0.833984 15.1663 4.04732 15.1663 8.00065C15.1663 11.954 11.953 15.1673 7.99967 15.1673ZM7.99967 1.83398C4.59967 1.83398 1.83301 4.60065 1.83301 8.00065C1.83301 11.4007 4.59967 14.1673 7.99967 14.1673C11.3997 14.1673 14.1663 11.4007 14.1663 8.00065C14.1663 4.60065 11.3997 1.83398 7.99967 1.83398Z" fill="white"/>
<path d="M10.4731 10.6192C10.3864 10.6192 10.2998 10.5992 10.2198 10.5459L8.1531 9.31253C7.63977 9.00586 7.25977 8.33253 7.25977 7.73919V5.00586C7.25977 4.73253 7.48643 4.50586 7.75977 4.50586C8.0331 4.50586 8.25977 4.73253 8.25977 5.00586V7.73919C8.25977 7.97919 8.45977 8.33253 8.66643 8.45253L10.7331 9.68586C10.9731 9.82586 11.0464 10.1325 10.9064 10.3725C10.8064 10.5325 10.6398 10.6192 10.4731 10.6192Z" fill="white"/>
</svg>
