<svg width="20" height="21" viewBox="0 0 20 21" fill="none" xmlns="http://www.w3.org/2000/svg">
<mask id="mask0_3514_14597" style="mask-type:alpha" maskUnits="userSpaceOnUse" x="0" y="0" width="20" height="21">
<rect y="0.486328" width="20" height="20" fill="#D9D9D9"/>
</mask>
<g mask="url(#mask0_3514_14597)">
<path d="M1.49902 16.569V14.7148C1.49902 14.2843 1.61013 13.9023 1.83236 13.569C2.05458 13.2357 2.35319 12.9718 2.72819 12.7773C3.51986 12.4023 4.31514 12.1073 5.11402 11.8923C5.91236 11.6768 6.79069 11.569 7.74902 11.569C8.70736 11.569 9.58597 11.6768 10.3849 11.8923C11.1832 12.1073 11.9782 12.4023 12.7699 12.7773C13.1449 12.9718 13.4435 13.2357 13.6657 13.569C13.8879 13.9023 13.999 14.2843 13.999 14.7148V16.569H1.49902ZM15.6657 16.569V14.6107C15.6657 14.069 15.5301 13.5515 15.259 13.0582C14.9885 12.5654 14.6101 12.1385 14.124 11.7773C14.6796 11.8607 15.2074 11.989 15.7074 12.1623C16.2074 12.3362 16.6865 12.5412 17.1449 12.7773C17.5754 13.0135 17.9087 13.2879 18.1449 13.6007C18.381 13.9129 18.499 14.2496 18.499 14.6107V16.569H15.6657ZM7.74902 10.2357C6.94347 10.2357 6.25597 9.94734 5.68652 9.37068C5.11708 8.79457 4.83236 8.11068 4.83236 7.31901C4.83236 6.51345 5.11708 5.82595 5.68652 5.25651C6.25597 4.68707 6.94347 4.40234 7.74902 4.40234C8.55458 4.40234 9.24208 4.68707 9.81152 5.25651C10.381 5.82595 10.6657 6.51345 10.6657 7.31901C10.6657 8.11068 10.381 8.79457 9.81152 9.37068C9.24208 9.94734 8.55458 10.2357 7.74902 10.2357ZM14.9365 7.31901C14.9365 8.11068 14.6518 8.79457 14.0824 9.37068C13.5129 9.94734 12.8254 10.2357 12.0199 10.2357C11.9365 10.2357 11.8218 10.2251 11.6757 10.204C11.5301 10.1835 11.4087 10.1593 11.3115 10.1315C11.6449 9.72873 11.8985 9.2879 12.0724 8.80901C12.2457 8.32957 12.3324 7.8329 12.3324 7.31901C12.3324 6.79123 12.2421 6.29123 12.0615 5.81901C11.881 5.34679 11.631 4.90929 11.3115 4.50651C11.4226 4.46484 11.5407 4.43707 11.6657 4.42318C11.7907 4.40929 11.9087 4.40234 12.0199 4.40234C12.8254 4.40234 13.5129 4.68707 14.0824 5.25651C14.6518 5.82595 14.9365 6.51345 14.9365 7.31901Z" fill="#DAD8D8"/>
</g>
</svg>
