<svg width="24" height="24" viewBox="0 0 24 24" fill="none" xmlns="http://www.w3.org/2000/svg">
<rect x="0.5" y="23.5" width="23" height="23" rx="7.5" transform="rotate(-90 0.5 23.5)" />
<mask id="mask0_5140_2787" style="mask-type:alpha" maskUnits="userSpaceOnUse" x="0" y="0" width="24" height="24">
<rect y="24" width="24" height="24" transform="rotate(-90 0 24)" fill="#D9D9D9"/>
</mask>
<g mask="url(#mask0_5140_2787)">
<path d="M13 17.5498C13 17.8165 12.904 18.0498 12.712 18.2498C12.5207 18.4498 12.2833 18.5498 12 18.5498C11.7167 18.5498 11.479 18.4498 11.287 18.2498C11.0957 18.0498 11 17.8165 11 17.5498C11 17.2665 11.0957 17.0291 11.287 16.8378C11.479 16.6458 11.7167 16.5498 12 16.5498C12.2833 16.5498 12.5207 16.6458 12.712 16.8378C12.904 17.0291 13 17.2665 13 17.5498ZM13 11.9998C13 12.2831 12.904 12.5205 12.712 12.7118C12.5207 12.9038 12.2833 12.9998 12 12.9998C11.7167 12.9998 11.479 12.9038 11.287 12.7118C11.0957 12.5205 11 12.2831 11 11.9998C11 11.7165 11.0957 11.4788 11.287 11.2868C11.479 11.0955 11.7167 10.9998 12 10.9998C12.2833 10.9998 12.5207 11.0955 12.712 11.2868C12.904 11.4788 13 11.7165 13 11.9998ZM13 6.44981C13 6.73314 12.904 6.9708 12.712 7.1628C12.5207 7.35414 12.2833 7.44981 12 7.44981C11.7167 7.44981 11.479 7.35414 11.287 7.1628C11.0957 6.9708 11 6.73314 11 6.44981C11 6.18314 11.0957 5.9498 11.287 5.7498C11.479 5.5498 11.7167 5.44981 12 5.44981C12.2833 5.44981 12.5207 5.5498 12.712 5.7498C12.904 5.9498 13 6.18314 13 6.44981Z" fill="#2A2B2A"/>
</g>
</svg>
