<svg width="286" height="177" viewBox="0 0 286 177" fill="none" xmlns="http://www.w3.org/2000/svg">
<path d="M98.785 69.2574C99.2902 69.2887 99.7966 69.2181 100.274 69.0499C100.751 68.8817 101.19 68.6193 101.564 68.2782C101.938 67.9372 102.24 67.5245 102.452 67.0646C102.663 66.6047 102.78 66.107 102.796 65.6011C102.848 63.5508 102.895 61.4817 102.895 61.4817C102.895 61.4817 105.994 61.151 106.202 58.0804C106.41 55.0098 106.202 47.9144 106.202 47.9144C104.489 47.0769 102.585 46.7111 100.684 46.8547C98.7834 46.9984 96.9553 47.6463 95.3884 48.7316L94.916 49.0623L95.2798 65.5963C95.3066 66.5324 95.68 67.4252 96.3276 68.1016C96.9752 68.778 97.8509 69.1899 98.785 69.2574Z" fill="#B78876"/>
<path d="M104.789 53.3373C104.726 53.2746 104.683 53.1946 104.665 53.1075C104.648 53.0204 104.656 52.93 104.69 52.8479C104.724 52.7658 104.782 52.6955 104.855 52.6461C104.929 52.5967 105.016 52.5703 105.105 52.5703C105.194 52.5703 105.281 52.5967 105.355 52.6461C105.428 52.6955 105.486 52.7658 105.52 52.8479C105.554 52.93 105.563 53.0204 105.545 53.1075C105.528 53.1946 105.485 53.2746 105.422 53.3373C105.337 53.4209 105.224 53.4679 105.105 53.4679C104.986 53.4679 104.873 53.4209 104.789 53.3373Z" fill="#263238"/>
<path d="M105.984 52.8072C105.932 52.8591 105.639 52.6088 105.219 52.5899C104.798 52.571 104.477 52.7694 104.43 52.7127C104.382 52.656 104.463 52.5946 104.6 52.4954C104.788 52.3745 105.009 52.3166 105.233 52.33C105.456 52.3439 105.668 52.4301 105.837 52.5757C105.965 52.6843 106.007 52.7835 105.984 52.8072Z" fill="#263238"/>
<path d="M100.769 52.806C100.83 52.8323 100.885 52.872 100.929 52.9222C100.973 52.9724 101.005 53.0318 101.023 53.096C101.042 53.1603 101.045 53.2279 101.034 53.2937C101.023 53.3596 100.997 53.4222 100.959 53.4768C100.92 53.5314 100.87 53.5768 100.812 53.6096C100.754 53.6423 100.689 53.6617 100.622 53.6662C100.555 53.6707 100.489 53.6603 100.427 53.6357C100.364 53.6111 100.309 53.5729 100.263 53.524C100.177 53.4525 100.121 53.3514 100.106 53.2407C100.09 53.13 100.117 53.0176 100.18 52.9254C100.243 52.8332 100.339 52.768 100.448 52.7424C100.556 52.7168 100.671 52.7327 100.769 52.7871V52.806Z" fill="#263238"/>
<path d="M101.364 52.9552C101.312 53.0072 101.024 52.7568 100.599 52.7379C100.174 52.719 99.8575 52.9175 99.815 52.8608C99.7725 52.8041 99.8433 52.7427 99.9851 52.6435C100.173 52.522 100.394 52.4643 100.617 52.4787C100.84 52.4932 101.052 52.5791 101.223 52.7238C101.35 52.8324 101.398 52.9316 101.364 52.9552Z" fill="#263238"/>
<path d="M102.909 56.2254C103.131 56.15 103.364 56.1133 103.598 56.1168C103.712 56.1168 103.797 56.0884 103.811 56.027C103.82 55.9158 103.797 55.8045 103.745 55.7058C103.65 55.4223 103.556 55.1342 103.452 54.8318C103.173 54.0869 102.967 53.3164 102.838 52.5312C103.196 53.2419 103.479 53.9875 103.683 54.7563L103.957 55.6396C104.023 55.7883 104.037 55.9548 103.995 56.112C103.977 56.1534 103.95 56.1902 103.915 56.2196C103.881 56.2491 103.841 56.2704 103.797 56.2821C103.733 56.2909 103.667 56.2909 103.603 56.2821C103.37 56.3049 103.135 56.2857 102.909 56.2254Z" fill="#263238"/>
<path d="M101.506 56.625L103.556 57.3336C103.4 57.5511 103.175 57.7089 102.917 57.781C102.66 57.8532 102.385 57.8353 102.139 57.7304C101.246 57.3478 101.506 56.625 101.506 56.625Z" fill="white"/>
<path d="M102.899 61.4345C101.478 61.3905 100.102 60.9252 98.9453 60.0977C98.9453 60.0977 99.7862 62.3605 102.866 62.2329L102.899 61.4345Z" fill="#A36957"/>
<path d="M105.526 47.1076C102.99 46.2178 100.252 46.0752 97.637 46.6966C97.637 46.6966 95.0246 47.6414 94.9065 49.0586C94.8496 50.2148 94.8749 51.3735 94.9821 52.526L95.2041 54.888H96.1489L96.2434 51.6852C96.2434 51.6852 98.0385 50.4144 98.0527 48.4681C98.9313 48.3406 103.249 47.7784 106.216 48.7468V48.0619C106.21 47.8519 106.141 47.6485 106.018 47.4782C105.895 47.308 105.724 47.1788 105.526 47.1076Z" fill="#263238"/>
<path d="M95.3309 52.7771C95.3309 52.6518 95.2811 52.5316 95.1925 52.443C95.1039 52.3545 94.9838 52.3047 94.8585 52.3047C94.2869 52.3047 93.3515 52.5314 93.2806 54.1187C93.1814 56.3815 95.3498 55.791 95.3592 55.7249C95.3687 55.6587 95.3498 53.6558 95.3309 52.7771Z" fill="#B78876"/>
<path d="M94.8727 54.8553C94.8727 54.8553 94.8302 54.8836 94.7641 54.912C94.67 54.9493 94.5652 54.9493 94.4712 54.912C94.3291 54.8132 94.2157 54.6786 94.1427 54.5217C94.0697 54.3648 94.0396 54.1914 94.0555 54.0191C94.0594 53.824 94.1062 53.6321 94.1925 53.457C94.2158 53.3873 94.2561 53.3245 94.3097 53.2742C94.3633 53.2239 94.4285 53.1877 94.4995 53.1688C94.5452 53.1576 94.5934 53.1634 94.6352 53.1851C94.6769 53.2069 94.7093 53.243 94.7263 53.2869C94.7546 53.353 94.7263 53.3956 94.7499 53.4003C94.7735 53.405 94.8019 53.3625 94.7877 53.268C94.7759 53.2126 94.7459 53.1628 94.7027 53.1263C94.644 53.0754 94.5675 53.0499 94.4901 53.0554C94.396 53.0707 94.3073 53.1094 94.2322 53.1681C94.157 53.2267 94.0979 53.3033 94.0602 53.3908C93.9563 53.5824 93.9011 53.7965 93.8996 54.0144C93.8796 54.2148 93.9191 54.4167 94.0132 54.5949C94.1073 54.773 94.2518 54.9194 94.4287 55.0159C94.4884 55.0378 94.5524 55.0453 94.6156 55.0379C94.6788 55.0306 94.7393 55.0084 94.7924 54.9734C94.868 54.912 94.8822 54.86 94.8727 54.8553Z" fill="#A36957"/>
<path d="M140.133 55.3C139.519 55.0874 138.243 58.3942 138.121 57.525C137.998 56.6557 140.128 53.656 139.476 53.4576C138.626 53.1978 137.374 56.6888 137.247 56.9723C137.119 57.2557 136.699 57.0856 136.826 56.8353C137.01 56.4668 138.872 52.5837 138.04 52.3333C137.568 52.1868 137.393 53.0419 137.393 53.0419C137.393 53.0419 135.919 56.7927 135.532 56.6557C135.145 56.5187 135.929 54.2937 136.25 53.5521C136.571 52.8104 136.349 52.3805 135.91 52.5081C135.612 52.5931 134.582 54.8181 134.28 55.5503C133.978 56.2825 133.198 58.3044 132.773 56.9911C132.348 55.6779 131.526 54.8323 131.143 54.7567C131.054 54.748 130.964 54.7675 130.886 54.8125C130.809 54.8575 130.747 54.9256 130.71 55.0074C130.673 55.0892 130.663 55.1806 130.68 55.2686C130.698 55.3567 130.742 55.437 130.808 55.4984C131.088 55.8708 131.314 56.2812 131.479 56.7172C131.626 57.062 131.714 57.4294 131.739 57.8037C131.8 58.5542 131.787 59.309 131.701 60.057L124.119 73.7047L111.95 69.1129L110.277 76.0667C110.277 76.0667 126.263 83.1102 127.26 82.5669C129.518 81.3387 136.614 61.4789 136.614 61.4789C137.666 60.1318 138.643 58.7282 139.543 57.2746C140.539 55.4747 140.383 55.3803 140.133 55.3Z" fill="#B78876"/>
<path d="M119.485 71.5014C116.102 69.8149 113.707 68.8182 111.855 67.6608C106.106 64.0658 104.613 64.8973 103.267 64.7461C102.143 65.1051 100.485 65.7854 99.8516 65.9082C99.2186 66.031 96.8991 65.2799 95.4016 64.8359C91.9294 65.0295 89.8225 66.5318 86.6433 68.9316L80.1855 74.0524L87.829 81.8659L90.191 80.0708C90.3327 83.609 90.4603 83.6421 90.6398 87.2701L90.7909 101.244L112.394 102.189L111.033 88.2291L110.372 77.2458L116.565 80.2408L119.499 71.5014" fill="#A996F8"/>
<path d="M95.1045 65.2517L95.0762 63.0078C95.0762 63.0078 98.9357 63.3668 99.7529 66.0359L95.1045 65.2517Z" fill="#A996F8"/>
<path d="M103.286 65.0871L102.941 62.9141C102.144 63.0259 101.404 63.389 100.828 63.9506C100.252 64.5122 99.8703 65.243 99.7383 66.0366L103.286 65.0871Z" fill="#A996F8"/>
<path d="M103.682 73.0284C103.927 72.9832 104.175 72.9626 104.424 72.967C104.896 72.967 105.638 72.9103 106.517 72.8867H106.621V72.9906C106.621 73.8457 106.654 74.8236 106.677 75.877V75.9384L106.625 75.9762L106.417 76.1227L105.317 76.8974L105.251 76.9446L105.184 76.9021L103.663 75.9573L103.611 75.9242V75.8676C103.611 74.9936 103.611 74.2756 103.64 73.7843C103.634 73.5363 103.648 73.2883 103.682 73.0426C103.721 73.3057 103.746 73.5706 103.758 73.8362C103.758 74.3323 103.814 75.0267 103.833 75.8534L103.786 75.7636L105.321 76.7084H105.175L106.276 75.929L106.479 75.7825L106.427 75.8817C106.427 74.833 106.427 73.8504 106.427 73.0001L106.531 73.0993C105.699 73.0993 105.005 73.0993 104.509 73.071C104.233 73.0714 103.957 73.0572 103.682 73.0284Z" fill="#263238"/>
<path d="M106.455 73.6985C105.993 73.8163 105.514 73.8562 105.038 73.8166C104.562 73.8569 104.083 73.8154 103.621 73.6938C104.083 73.5698 104.562 73.5282 105.038 73.571C105.515 73.5287 105.994 73.5719 106.455 73.6985Z" fill="#263238"/>
<path d="M99.8325 70.2253C99.6987 69.5363 99.6479 68.8337 99.6813 68.1326C99.6304 67.432 99.6637 66.7278 99.7805 66.0352C99.9088 66.7249 99.9579 67.427 99.927 68.1279C99.9749 68.8284 99.9432 69.532 99.8325 70.2253Z" fill="#263238"/>
<path d="M100.603 66.5957C100.603 66.5673 100.703 66.5107 100.825 66.5957C100.862 66.6286 100.89 66.6698 100.907 66.7159C100.925 66.7619 100.93 66.8114 100.925 66.8602C100.911 66.9227 100.88 66.9797 100.834 67.024C100.788 67.0683 100.73 67.0979 100.667 67.1091C100.604 67.1202 100.539 67.1124 100.481 67.0866C100.422 67.0608 100.373 67.0182 100.339 66.9642C100.314 66.922 100.301 66.8738 100.301 66.8248C100.301 66.7758 100.314 66.7277 100.339 66.6854C100.419 66.5437 100.542 66.5579 100.542 66.5862C100.542 66.6146 100.504 66.6666 100.499 66.7421C100.495 66.8177 100.533 66.8791 100.622 66.865C100.712 66.8508 100.722 66.7941 100.693 66.7091C100.665 66.624 100.603 66.6288 100.603 66.5957Z" fill="#263238"/>
<path d="M100.896 68.2664C100.896 68.2334 101.019 68.2334 101.095 68.3751C101.116 68.4175 101.127 68.4645 101.127 68.5121C101.127 68.5597 101.116 68.6066 101.095 68.6491C101.064 68.7036 101.019 68.7485 100.964 68.779C100.91 68.8095 100.848 68.8243 100.785 68.8219C100.723 68.8194 100.662 68.7998 100.61 68.7652C100.558 68.7305 100.516 68.6822 100.49 68.6255C100.473 68.581 100.466 68.5332 100.47 68.4857C100.474 68.4382 100.489 68.3923 100.514 68.3515C100.603 68.2145 100.721 68.2286 100.721 68.257C100.721 68.2853 100.684 68.3373 100.674 68.4176C100.665 68.4979 100.674 68.5688 100.792 68.5782C100.91 68.5877 100.925 68.5168 100.925 68.4271C100.925 68.3373 100.887 68.2995 100.896 68.2664Z" fill="#263238"/>
<path d="M98.8354 64.8614C98.8354 64.8614 98.7504 64.8614 98.6323 64.885C98.5476 64.9172 98.4722 64.9698 98.4129 65.0382C98.3535 65.1067 98.312 65.1887 98.2922 65.2771C98.2256 65.5652 98.1767 65.857 98.1457 66.1511C98.089 66.5006 98.0276 66.8644 97.9662 67.2423L97.9332 67.4407L97.7773 67.3321L97.4938 67.1336C96.8811 66.6937 96.303 66.2072 95.7648 65.6787C95.5283 65.4728 95.3245 65.2323 95.1602 64.9653C95.2121 64.9134 96.2136 65.9101 97.6355 66.9305L97.9143 67.1289L97.7253 67.214L97.9284 66.1085C97.9743 65.8071 98.0454 65.51 98.141 65.2204C98.1747 65.1143 98.2363 65.0193 98.3194 64.9453C98.4026 64.8713 98.5041 64.8211 98.6134 64.8C98.774 64.7669 98.8449 64.8614 98.8354 64.8614Z" fill="#263238"/>
<path d="M103.427 64.8259C103.074 65.7849 102.492 66.6429 101.731 67.3249L101.67 67.3768L101.495 67.5469L101.467 67.306C101.297 66.3571 100.961 65.4456 100.475 64.6133C100.701 64.7976 100.887 65.0278 101.018 65.2888C101.38 65.8963 101.615 66.5715 101.708 67.2729L101.504 67.202L101.556 67.1453C102.243 66.4254 102.869 65.6495 103.427 64.8259Z" fill="#263238"/>
<path opacity="0.3" d="M110.357 77.2461L112.384 77.35L116.947 78.9137L116.551 80.2411L110.357 77.2461Z" fill="black"/>
<g opacity="0.3">
<path d="M111.052 84.659C106.739 85.0801 102.4 85.1543 98.0751 84.881C96.5896 84.8635 95.1205 84.5687 93.7432 84.0118C92.0813 83.2142 90.7988 81.796 90.1719 80.0625L90.5592 86.0809L111.052 84.659Z" fill="black"/>
</g>
<g opacity="0.7">
<path d="M90.9414 70.9518C90.8847 70.9896 90.5351 70.5881 90.1572 70.0496C89.8931 69.7475 89.6951 69.3935 89.5762 69.0103C89.6329 68.9725 89.9824 69.374 90.3604 69.9078C90.6242 70.2119 90.822 70.5674 90.9414 70.9518Z" fill="white"/>
</g>
<g opacity="0.7">
<path d="M86.502 76.1336C86.5805 75.6385 86.7401 75.1597 86.9744 74.7164C87.1426 74.2419 87.385 73.7971 87.6924 73.3984C87.6104 73.8927 87.451 74.371 87.22 74.8156C87.0529 75.2906 86.8104 75.7356 86.502 76.1336Z" fill="white"/>
</g>
<g opacity="0.7">
<path d="M92.1765 78.0019C91.7921 77.7469 91.4549 77.4272 91.1797 77.0571C90.8473 76.7327 90.5725 76.3541 90.3672 75.9375C91.0901 76.5143 91.7031 77.2168 92.1765 78.0113V78.0019Z" fill="white"/>
</g>
<g opacity="0.7">
<path d="M95.2132 72.6154C95.2558 72.6674 94.9015 73.0406 94.4196 73.4516C93.9378 73.8626 93.5079 74.1507 93.4748 74.0988C93.4418 74.0468 93.7913 73.6736 94.2732 73.2626C94.755 72.8516 95.1707 72.5635 95.2132 72.6154Z" fill="white"/>
</g>
<g opacity="0.7">
<path d="M96.2004 70.2249C96.1532 70.2721 95.7894 69.9698 95.454 69.5021C95.1186 69.0344 94.9438 68.5951 94.9816 68.5573C95.0194 68.5195 95.3076 68.8974 95.6335 69.3462C95.9595 69.795 96.2524 70.1776 96.2004 70.2249Z" fill="white"/>
</g>
<g opacity="0.7">
<path d="M97.0376 80.8438C96.6888 81.1885 96.2985 81.4884 95.8755 81.7366C95.4987 82.0508 95.0846 82.3173 94.6426 82.5302C94.9327 82.1267 95.3045 81.7887 95.7338 81.5382C96.1161 81.2195 96.5599 80.9831 97.0376 80.8438Z" fill="white"/>
</g>
<g opacity="0.7">
<path d="M98.0606 77.8169C98.0134 77.8641 97.5882 77.557 97.1158 77.1272C96.6434 76.6973 96.3127 76.3099 96.36 76.2627C96.4072 76.2154 96.8324 76.5178 97.3048 76.9477C97.7772 77.3775 98.0889 77.7649 98.0606 77.8169Z" fill="white"/>
</g>
<g opacity="0.7">
<path d="M100.604 74.3768C100.658 73.5849 100.963 72.8308 101.473 72.2227C101.404 72.6069 101.277 72.9782 101.095 73.3233C100.984 73.697 100.819 74.052 100.604 74.3768Z" fill="white"/>
</g>
<g opacity="0.7">
<path d="M101.736 83.2038C101.698 83.2558 101.24 82.9629 100.791 82.4574C100.497 82.1782 100.289 81.821 100.191 81.4276C100.253 81.3945 100.56 81.815 100.976 82.2968C101.391 82.7787 101.783 83.1519 101.736 83.2038Z" fill="white"/>
</g>
<g opacity="0.7">
<path d="M103.489 78.9878C103.441 79.0398 103.016 78.6855 102.501 78.1989C101.986 77.7123 101.637 77.2824 101.684 77.2305C102.061 77.4298 102.396 77.6992 102.671 78.0241C103.167 78.5059 103.536 78.9406 103.489 78.9878Z" fill="white"/>
</g>
<g opacity="0.7">
<path d="M108.037 82.2109C107.721 82.5461 107.368 82.844 106.984 83.0991C106.65 83.4171 106.284 83.7004 105.893 83.9446C106.118 83.5274 106.442 83.1721 106.837 82.9101C107.176 82.5847 107.587 82.3449 108.037 82.2109Z" fill="white"/>
</g>
<g opacity="0.7">
<path d="M107.905 78.5156C107.947 78.5723 107.489 78.988 106.884 79.4604C106.54 79.7764 106.144 80.0305 105.713 80.2115C105.996 79.8399 106.341 79.5202 106.733 79.2667C107.079 78.9529 107.475 78.699 107.905 78.5156Z" fill="white"/>
</g>
<g opacity="0.7">
<path d="M108.751 75.4718C108.556 75.0854 108.456 74.6578 108.459 74.2247C108.385 73.7982 108.417 73.3601 108.553 72.9492C108.66 73.3593 108.711 73.782 108.704 74.2058C108.778 74.6236 108.794 75.0497 108.751 75.4718Z" fill="white"/>
</g>
<g opacity="0.7">
<path d="M105.649 74.4398C105.71 74.4729 105.568 74.8461 105.337 75.276C105.105 75.7059 104.864 76.0271 104.808 75.994C104.751 75.961 104.888 75.5878 105.119 75.1579C105.351 74.728 105.582 74.4068 105.649 74.4398Z" fill="white"/>
</g>
<g opacity="0.7">
<path d="M105.846 69.7004C104.985 69.3202 104.198 68.7908 103.521 68.1367C103.967 68.2912 104.382 68.5213 104.75 68.817C105.162 69.0474 105.533 69.3461 105.846 69.7004Z" fill="white"/>
</g>
<g opacity="0.7">
<path d="M108.955 67.9718C108.486 67.946 108.033 67.796 107.642 67.5372C107.213 67.3462 106.842 67.0466 106.564 66.668C106.981 66.8498 107.381 67.0679 107.76 67.3199C108.176 67.502 108.576 67.7201 108.955 67.9718Z" fill="white"/>
</g>
<g opacity="0.7">
<path d="M111.401 69.8464C111.074 70.0274 110.729 70.1716 110.371 70.2763C110.04 70.451 109.689 70.5858 109.327 70.6779C109.289 70.6259 109.686 70.281 110.272 70.0448C110.617 69.861 111.013 69.7915 111.401 69.8464Z" fill="white"/>
</g>
<g opacity="0.7">
<path d="M113.014 74.828C113.034 74.2941 113.167 73.7707 113.406 73.2927C113.572 72.7853 113.84 72.3174 114.195 71.918C114.058 72.4251 113.872 72.9173 113.637 73.3871C113.476 73.8863 113.267 74.3688 113.014 74.828Z" fill="white"/>
</g>
<g opacity="0.7">
<path d="M116.344 76.8357C116.174 76.4282 116.082 75.9922 116.074 75.5507C115.987 75.1197 115.978 74.6761 116.051 74.2422C116.221 74.6478 116.313 75.0824 116.32 75.5224C116.408 75.9551 116.416 76.4001 116.344 76.8357Z" fill="white"/>
</g>
<g opacity="0.7">
<path d="M83.4125 72.6133C83.4508 72.9894 83.409 73.3694 83.2897 73.7281C83.2472 74.1032 83.123 74.4644 82.9259 74.7863C82.8875 74.4117 82.9294 74.0333 83.0487 73.6762C83.0918 73.2998 83.2159 72.9371 83.4125 72.6133Z" fill="white"/>
</g>
<g opacity="0.7">
<path d="M88.3642 79.6702C87.544 79.6983 86.7373 79.456 86.0684 78.9805C86.4677 79.0251 86.8588 79.1253 87.2305 79.2781C87.6246 79.3562 88.0061 79.4881 88.3642 79.6702Z" fill="white"/>
</g>
<g opacity="0.7">
<path d="M94.0363 66.37C94.0599 66.4362 93.6867 66.6204 93.2474 66.8802C92.808 67.1401 92.4585 67.3526 92.4112 67.3196C92.364 67.2865 92.6569 66.9369 93.1198 66.6677C93.5828 66.3984 94.0174 66.3086 94.0363 66.37Z" fill="white"/>
</g>
<g opacity="0.7">
<path d="M88.1266 71.0848C87.7792 71.1266 87.4268 71.0878 87.0968 70.9714C86.5441 70.8438 86.1047 70.6879 86.1236 70.6218C86.4711 70.58 86.8235 70.6188 87.1535 70.7352C87.6967 70.8627 88.1691 70.9997 88.1266 71.0848Z" fill="white"/>
</g>
<g opacity="0.7">
<path d="M97.0179 65.3989C96.9943 65.4603 96.6305 65.3611 96.2809 65.0777C95.9314 64.7943 95.7613 64.4541 95.8085 64.4211C95.8558 64.388 96.1061 64.6242 96.4321 64.8935C96.758 65.1627 97.0462 65.3328 97.0179 65.3989Z" fill="white"/>
</g>
<g opacity="0.7">
<path d="M102.704 64.0857C102.751 64.1329 102.572 64.3927 102.303 64.662C102.033 64.9313 101.774 65.1061 101.726 65.0588C101.679 65.0116 101.859 64.7565 102.128 64.4872C102.397 64.2179 102.657 64.0384 102.704 64.0857Z" fill="white"/>
</g>
<path d="M72.514 163.662L69.5284 165.391C69.5284 165.391 71.7251 172.567 70.3787 171.291C69.1741 170.153 64.6721 161.527 63.6092 159.396L63.373 158.924L68.4561 156.16L72.514 163.662Z" fill="#A996F8"/>
<g opacity="0.5">
<path d="M64.9838 161.601C65.551 161.13 65.9243 160.465 66.0326 159.735C66.1392 159.014 65.9706 158.279 65.5602 157.676L63.4863 158.871L64.9838 161.601Z" fill="white"/>
</g>
<path opacity="0.5" d="M70.4921 168.964C70.4921 168.964 71.1204 171.558 70.5961 171.487C70.0717 171.416 65.1965 162.875 63.373 158.921L63.5478 158.836L69.1505 168.851C69.1505 168.851 70.2181 168.539 70.4921 168.964Z" fill="white"/>
<path d="M63.4863 158.715C63.5025 158.761 63.5231 158.805 63.5477 158.848L63.732 159.23L64.45 160.647C65.0641 161.824 65.9334 163.43 66.9349 165.182C67.9363 166.935 68.8717 168.489 69.5708 169.637L70.4023 170.965L70.6337 171.319L70.7188 171.442C70.703 171.395 70.6807 171.35 70.6526 171.309L70.4353 170.941L69.6323 169.595C68.952 168.461 68.0261 166.888 67.0246 165.135C66.0231 163.383 65.135 161.776 64.5162 160.614L63.7698 159.235C63.6942 159.098 63.628 158.975 63.5619 158.862C63.4958 158.748 63.4911 158.711 63.4863 158.715Z" fill="#263238"/>
<path d="M69.0332 168.91C69.293 168.844 69.559 168.806 69.8268 168.797C70.0937 168.822 70.3568 168.877 70.611 168.962C70.3942 168.778 70.116 168.682 69.8316 168.693C69.5478 168.665 69.2638 168.743 69.0332 168.91Z" fill="#263238"/>
<path d="M68.8906 166.068C69.1668 166.149 69.4586 166.162 69.7409 166.105C69.6084 166.049 69.4643 166.025 69.3205 166.035C69.1766 166.012 69.0295 166.024 68.8906 166.068Z" fill="#263238"/>
<path d="M68.8672 165.277C68.8672 165.306 69.0042 165.377 69.1931 165.438C69.3821 165.499 69.5427 165.533 69.5522 165.504C69.5616 165.476 69.4152 165.405 69.2262 165.339C69.0372 165.273 68.8766 165.249 68.8672 165.277Z" fill="#263238"/>
<path d="M69.3535 164.489C69.3795 164.64 69.4393 164.784 69.5283 164.909C69.6464 165.126 69.7692 165.292 69.7929 165.278C69.7668 165.126 69.7071 164.982 69.6181 164.857C69.5 164.64 69.3819 164.479 69.3535 164.489Z" fill="#263238"/>
<path d="M69.7776 164.062C69.7647 164.241 69.8076 164.419 69.9005 164.573C70.0233 164.837 70.1933 165.007 70.217 164.988C70.1582 164.824 70.0838 164.666 69.9949 164.516C69.9348 164.359 69.8621 164.208 69.7776 164.062Z" fill="#263238"/>
<path d="M69.6894 165.953C69.7559 166.125 69.8501 166.284 69.9681 166.426C70.0897 166.587 70.2257 166.737 70.3743 166.874C70.4607 166.96 70.5575 167.035 70.6625 167.096C70.6946 167.116 70.7304 167.13 70.7678 167.135C70.8051 167.141 70.8432 167.139 70.8798 167.129C70.9193 167.117 70.9543 167.094 70.9804 167.062C71.0064 167.03 71.0224 166.991 71.0263 166.95C71.0119 166.715 70.9165 166.492 70.7562 166.32C70.596 166.148 70.3808 166.036 70.1476 166.005C70.0101 165.985 69.87 165.995 69.7366 166.033C69.6874 166.045 69.641 166.066 69.5996 166.095C69.7777 166.063 69.9601 166.063 70.1381 166.095C70.3261 166.13 70.4999 166.219 70.6389 166.35C70.8092 166.503 70.9127 166.717 70.9271 166.945C70.9271 167.054 70.8042 167.077 70.705 167.021C70.6103 166.96 70.5203 166.892 70.4358 166.818C70.2879 166.687 70.1504 166.545 70.0248 166.392C69.8122 166.123 69.7035 165.953 69.6894 165.953Z" fill="#263238"/>
<path d="M69.7458 166.087C69.8811 166.088 70.012 166.039 70.1143 165.95C70.2324 165.865 70.3268 165.752 70.3883 165.62C70.433 165.537 70.4563 165.444 70.4563 165.35C70.4563 165.256 70.433 165.164 70.3883 165.081C70.347 165.042 70.292 165.02 70.2348 165.02C70.1776 165.02 70.1226 165.042 70.0812 165.081C70.0103 165.136 69.9523 165.205 69.9112 165.284C69.8416 165.409 69.7876 165.543 69.7506 165.681C69.705 165.803 69.6919 165.935 69.7128 166.064C69.7128 166.064 69.7458 165.922 69.8214 165.7C69.8659 165.573 69.9245 165.451 69.9962 165.336C70.0576 165.213 70.2135 165.062 70.308 165.171C70.3367 165.241 70.3494 165.316 70.3454 165.391C70.3413 165.466 70.3204 165.539 70.2844 165.606C70.229 165.725 70.1484 165.832 70.0482 165.917C69.953 165.983 69.8518 166.04 69.7458 166.087Z" fill="#263238"/>
<path d="M65.6216 157.703C65.6216 157.703 65.7633 157.907 65.9145 158.266C66.1148 158.734 66.1819 159.249 66.1082 159.754C66.0227 160.258 65.8023 160.73 65.4704 161.119C65.2154 161.412 64.998 161.549 64.998 161.563C65.053 161.544 65.1042 161.515 65.1492 161.478C65.2806 161.388 65.4011 161.284 65.5082 161.166C65.868 160.779 66.1062 160.294 66.1932 159.773C66.2714 159.25 66.1925 158.715 65.9665 158.237C65.8984 158.094 65.8161 157.958 65.7208 157.831C65.6689 157.741 65.6263 157.699 65.6216 157.703Z" fill="#263238"/>
<path d="M66.25 162.125C66.3728 162.53 66.5458 162.917 66.7649 163.278C66.9538 163.657 67.1938 164.008 67.4782 164.322C67.5019 164.322 67.1948 163.85 66.8547 163.231C66.5145 162.612 66.2783 162.111 66.25 162.125Z" fill="#263238"/>
<path d="M65.4138 160.656C65.3855 160.656 65.3335 160.755 65.2485 160.869C65.1635 160.982 65.0832 161.067 65.0973 161.091C65.1115 161.114 65.2391 161.063 65.3335 160.93C65.428 160.798 65.4422 160.661 65.4138 160.656Z" fill="#263238"/>
<path d="M65.7862 159.707C65.7579 159.707 65.7107 159.792 65.6729 159.915C65.6351 160.038 65.6351 160.142 65.6729 160.151C65.7107 160.161 65.7485 160.066 65.7862 159.943C65.824 159.82 65.8146 159.716 65.7862 159.707Z" fill="#263238"/>
<path d="M65.6498 158.742C65.6262 158.742 65.6876 158.86 65.7113 158.992C65.7349 159.125 65.7113 159.238 65.749 159.247C65.7868 159.257 65.8435 159.134 65.8105 158.973C65.7774 158.813 65.6687 158.718 65.6498 158.742Z" fill="#263238"/>
<path d="M65.495 158.094C65.4666 158.094 65.4525 158.16 65.4619 158.236C65.4713 158.311 65.5044 158.373 65.5328 158.368C65.5611 158.363 65.5753 158.297 65.5658 158.222C65.5564 158.146 65.495 158.089 65.495 158.094Z" fill="#263238"/>
<path d="M121.478 170.309L121.369 173.762C121.369 173.762 128.625 175.685 126.83 176.152C125.224 176.577 115.526 175.836 113.159 175.614L112.625 175.562L112.965 169.789L121.478 170.309Z" fill="#A996F8"/>
<g opacity="0.5">
<path d="M115.748 175.611C115.653 174.875 115.285 174.201 114.718 173.722C114.165 173.255 113.457 173.012 112.734 173.041L112.645 175.446L115.748 175.611Z" fill="white"/>
</g>
<path opacity="0.5" d="M124.912 174.832C124.912 174.832 127.444 175.668 127.109 176.074C126.773 176.481 116.947 176.108 112.625 175.564V175.371L124.085 175.909C124.085 175.909 124.407 174.832 124.912 174.832Z" fill="white"/>
<path d="M112.512 175.359H112.658L113.083 175.397L114.642 175.525C115.965 175.624 117.788 175.737 119.806 175.818C121.823 175.898 123.656 175.926 124.978 175.931H126.542H126.972C127.02 175.938 127.07 175.938 127.118 175.931C127.07 175.924 127.02 175.924 126.972 175.931H126.542L124.978 175.903C123.656 175.879 121.827 175.837 119.81 175.761C117.793 175.685 115.97 175.581 114.647 175.501L113.083 175.407H112.658C112.612 175.384 112.562 175.369 112.512 175.359Z" fill="#263238"/>
<path d="M124.1 176.04C124.18 175.785 124.287 175.539 124.421 175.308C124.584 175.093 124.771 174.899 124.978 174.727C124.707 174.816 124.477 175.001 124.331 175.246C124.159 175.473 124.076 175.756 124.1 176.04Z" fill="#263238"/>
<path d="M121.611 174.653C121.611 174.653 121.762 174.526 121.895 174.332C122.027 174.138 122.117 173.968 122.093 173.954C122.069 173.94 121.942 174.082 121.81 174.275C121.677 174.469 121.588 174.634 121.611 174.653Z" fill="#263238"/>
<path d="M120.926 174.26C120.926 174.283 121.087 174.198 121.238 174.071C121.389 173.943 121.502 173.82 121.483 173.797C121.464 173.773 121.323 173.863 121.172 173.99C121.02 174.118 120.907 174.241 120.926 174.26Z" fill="#263238"/>
<path d="M120.514 173.43C120.808 173.511 121.116 173.525 121.416 173.473C121.274 173.415 121.12 173.39 120.967 173.397C120.815 173.376 120.661 173.387 120.514 173.43Z" fill="#263238"/>
<path d="M120.387 172.852C120.532 172.955 120.705 173.013 120.883 173.017C121.057 173.05 121.237 173.034 121.402 172.97C121.235 172.933 121.064 172.914 120.892 172.913C120.726 172.878 120.557 172.858 120.387 172.852Z" fill="#263238"/>
<path d="M121.932 173.914C122.114 173.949 122.302 173.949 122.484 173.914C122.684 173.897 122.882 173.86 123.075 173.805C123.194 173.779 123.31 173.737 123.42 173.683C123.487 173.646 123.537 173.585 123.561 173.512C123.573 173.472 123.571 173.429 123.558 173.39C123.544 173.35 123.519 173.316 123.486 173.29C123.352 173.22 123.205 173.18 123.053 173.173C122.902 173.166 122.752 173.193 122.612 173.251C122.473 173.309 122.348 173.398 122.247 173.51C122.145 173.622 122.07 173.755 122.026 173.9C122.016 173.95 122.016 174.001 122.026 174.051C122.087 173.879 122.179 173.719 122.295 173.579C122.422 173.439 122.586 173.339 122.768 173.29C122.876 173.258 122.991 173.247 123.103 173.259C123.216 173.271 123.325 173.306 123.424 173.361C123.509 173.427 123.472 173.531 123.372 173.583C123.272 173.636 123.166 173.677 123.056 173.706C122.867 173.762 122.674 173.804 122.48 173.834C122.139 173.905 121.932 173.9 121.932 173.914Z" fill="#263238"/>
<path d="M122.074 173.947C122.145 173.833 122.171 173.697 122.149 173.564C122.137 173.42 122.091 173.281 122.017 173.158C121.972 173.07 121.904 172.997 121.821 172.944C121.738 172.89 121.643 172.86 121.545 172.855C121.489 172.867 121.439 172.899 121.406 172.945C121.372 172.992 121.358 173.049 121.365 173.106C121.375 173.194 121.404 173.28 121.45 173.356C121.518 173.482 121.602 173.598 121.7 173.701C121.783 173.803 121.888 173.884 122.008 173.937C122.008 173.937 121.899 173.833 121.757 173.654C121.672 173.548 121.598 173.434 121.535 173.314C121.464 173.191 121.422 172.978 121.559 172.959C121.696 172.941 121.837 173.096 121.918 173.21C121.989 173.32 122.037 173.444 122.059 173.574C122.075 173.697 122.08 173.822 122.074 173.947Z" fill="#263238"/>
<path d="M112.777 173.01C112.777 173.01 113.023 173.01 113.41 173.057C113.916 173.135 114.389 173.351 114.78 173.681C115.161 174.019 115.443 174.453 115.598 174.937C115.716 175.315 115.72 175.561 115.739 175.561C115.747 175.503 115.747 175.444 115.739 175.386C115.731 175.226 115.706 175.068 115.664 174.914C115.527 174.402 115.241 173.943 114.842 173.596C114.44 173.255 113.947 173.04 113.425 172.977C113.267 172.961 113.109 172.961 112.952 172.977C112.839 172.986 112.777 173.001 112.777 173.01Z" fill="#263238"/>
<path d="M116.863 174.816C117.272 174.923 117.693 174.98 118.115 174.986C118.538 175.025 118.963 175.008 119.381 174.934C119.381 174.905 118.814 174.934 118.12 174.882C117.425 174.83 116.868 174.783 116.863 174.816Z" fill="#263238"/>
<path d="M115.176 174.745C115.176 174.769 115.218 174.868 115.27 175C115.322 175.132 115.351 175.246 115.379 175.246C115.407 175.246 115.431 175.109 115.379 174.957C115.327 174.806 115.195 174.726 115.176 174.745Z" fill="#263238"/>
<path d="M114.572 173.933C114.548 173.933 114.6 174.042 114.69 174.136C114.78 174.231 114.86 174.292 114.884 174.269C114.907 174.245 114.851 174.16 114.766 174.066C114.681 173.971 114.591 173.914 114.572 173.933Z" fill="#263238"/>
<path d="M113.68 173.535C113.68 173.563 113.803 173.568 113.925 173.615C114.048 173.662 114.138 173.738 114.162 173.719C114.185 173.7 114.119 173.577 113.963 173.516C113.807 173.455 113.68 173.511 113.68 173.535Z" fill="#263238"/>
<path d="M113.037 173.336C113.037 173.364 113.07 173.412 113.141 173.44C113.212 173.468 113.278 173.473 113.287 173.44C113.297 173.407 113.254 173.364 113.184 173.336C113.113 173.308 113.047 173.312 113.037 173.336Z" fill="#263238"/>
<path d="M96.0907 109.488C96.0907 109.488 95.4671 125.951 92.9445 134.488C90.4219 143.024 83.6477 145.098 79.2449 147.847C75.0594 150.469 65.7012 155.439 65.7012 155.439L70.9826 164.589C70.9826 164.589 96.8087 153.658 101.415 143.874C104.948 136.358 108.817 122.522 108.817 122.522L96.0907 109.488Z" fill="#263238"/>
<path d="M110.595 102.122C110.595 102.122 121.488 124.939 124.398 131.133C124.703 131.78 124.844 132.492 124.809 133.206L122.887 171.665L111.837 171.107L113.032 134.019L94.3112 110.536C92.6977 108.544 91.5501 106.217 90.9524 103.724C90.7534 102.909 90.6488 102.073 90.6406 101.234L110.609 102.122" fill="#263238"/>
<path d="M156.431 154.237L57.2459 161.493L52.418 88.7478L150.857 81.8555L156.431 154.237Z" fill="white"/>
<path d="M156.431 154.238C156.431 154.238 156.389 153.789 156.318 152.92C156.247 152.051 156.148 150.761 156.011 149.084C155.746 145.721 155.359 140.784 154.863 134.478C153.875 121.874 152.468 103.772 150.758 81.8665L150.862 81.9562L52.4275 88.8722L52.5409 88.7399C52.5409 88.91 52.5409 89.0895 52.5787 89.2737C54.2935 115.171 55.9185 139.731 57.3594 161.49L57.2413 161.386L128.81 156.189L149.161 154.729L154.565 154.347L155.954 154.252L156.426 154.224C156.426 154.224 156.275 154.224 155.954 154.267L154.575 154.375L149.199 154.781L128.885 156.298L57.2554 161.608H57.1468V161.494C55.7012 139.736 54.0667 115.199 52.3425 89.2784C52.3425 89.0989 52.3425 88.9147 52.3047 88.7493V88.6265H52.4275L150.862 81.7578H150.961V81.857C152.628 103.814 154.008 121.921 154.967 134.544C155.439 140.841 155.812 145.768 156.063 149.127C156.186 150.804 156.285 152.084 156.346 152.949C156.408 153.813 156.431 154.238 156.431 154.238Z" fill="#263238"/>
<path d="M132.541 92.8711C132.744 92.8711 133.614 105.366 134.478 120.804C135.342 136.242 135.895 148.77 135.678 148.784C135.461 148.799 134.61 136.289 133.741 120.847C132.872 105.404 132.338 92.8805 132.541 92.8711Z" fill="#263238"/>
<path d="M123.732 92.7305C123.94 92.7305 124.804 105.23 125.674 120.668C126.543 136.106 127.091 148.634 126.874 148.644C126.656 148.653 125.801 136.149 124.937 120.706C124.072 105.263 123.529 92.7305 123.732 92.7305Z" fill="#263238"/>
<path d="M96.7672 93.1094C96.9703 93.1094 97.8396 105.604 98.7088 121.042C99.578 136.48 100.126 149.013 99.9087 149.023C99.6914 149.032 98.8363 136.528 97.9718 121.085C97.1073 105.642 96.5641 93.1188 96.7672 93.1094Z" fill="#263238"/>
<path d="M105.289 92.7305C105.492 92.7305 106.362 105.23 107.226 120.668C108.091 136.106 108.643 148.634 108.426 148.648C108.209 148.663 107.358 136.154 106.489 120.711C105.62 105.268 105.086 92.7588 105.289 92.7305Z" fill="#263238"/>
<path d="M113.807 92.3867C114.01 92.3867 114.879 104.882 115.744 120.32C116.608 135.758 117.161 148.291 116.948 148.3C116.736 148.309 115.876 135.805 115.007 120.362C114.137 104.92 113.604 92.3962 113.807 92.3867Z" fill="#263238"/>
<path d="M87.2951 94.3633C87.4982 94.3633 88.3674 106.858 89.2319 122.296C90.0964 137.734 90.6491 150.262 90.4318 150.277C90.2145 150.291 89.3642 137.782 88.495 122.339C87.6257 106.896 87.0919 94.3727 87.2951 94.3633Z" fill="#263238"/>
<path d="M77.9564 94.918C78.1596 94.918 79.0288 107.413 79.8933 122.851C80.7578 138.289 81.301 150.836 81.0837 150.836C80.8664 150.836 80.0114 138.341 79.1422 122.898C78.2729 107.455 77.7769 94.9274 77.9564 94.918Z" fill="#263238"/>
<path d="M68.6171 95.4766C68.8249 95.4766 69.6894 107.976 70.5586 123.414C71.4278 138.852 71.9758 151.38 71.7585 151.395C71.5412 151.409 70.6909 138.9 69.8217 123.438C68.9525 107.976 68.4139 95.4907 68.6171 95.4766Z" fill="#263238"/>
<path d="M80.8462 74.7266C80.8462 74.7266 69.8392 82.8093 71.9225 89.2623C74.4263 97.0097 92.0279 103.212 92.0279 103.212C93.4073 104.36 94.919 105.574 95.8071 106.151C97.6967 107.365 97.7628 107.18 97.8148 106.911C97.9471 106.198 94.5411 104.639 95.3725 104.493C96.2039 104.346 99.421 106.949 99.5343 106.188C99.6808 105.196 96.1 103.642 95.8024 103.486C95.5048 103.33 95.6229 102.839 95.8874 103.014C96.2653 103.241 100.3 105.513 100.451 104.544C100.536 104.011 99.676 103.77 99.676 103.77C99.676 103.77 95.8118 101.951 95.8968 101.497C95.9819 101.044 98.2588 102.022 99.0289 102.414C99.7989 102.806 100.191 102.56 100.011 102.045C99.8886 101.696 97.5739 100.43 96.818 100.061C96.0622 99.6929 93.9836 98.7198 95.2119 98.2521C96.4401 97.7844 97.1676 96.8349 97.1959 96.4003C97.2243 95.9657 96.6952 95.6586 96.4212 95.9893C96.0987 96.3049 95.7229 96.5608 95.3111 96.7451C95.0315 96.8898 94.7268 96.9796 94.4135 97.0097C92.7743 96.0035 81.054 88.7474 81.0068 87.4577C80.9548 86.0689 86.9118 80.9386 86.9118 80.9386L80.8462 74.7266Z" fill="#B78876"/>
<path d="M101.208 51.3031C101.208 51.374 100.897 51.3598 100.552 51.4118C100.207 51.4638 99.9187 51.5488 99.8856 51.4874C99.8525 51.426 100.117 51.2228 100.514 51.1661C100.911 51.1095 101.227 51.2417 101.208 51.3031Z" fill="#263238"/>
<path d="M105.511 51.0855C105.463 51.1422 105.241 51.0241 104.948 50.9769C104.655 50.9296 104.41 50.9485 104.386 50.8824C104.363 50.8163 104.632 50.6651 104.996 50.7312C105.359 50.7974 105.558 51.0383 105.511 51.0855Z" fill="#263238"/>
<path d="M161.393 49.6607C157.727 67.8529 144.386 136.252 140.839 154.505C140.606 155.702 140.856 156.943 141.534 157.957C142.211 158.971 143.262 159.676 144.457 159.919L219.337 175.092C219.936 175.213 220.552 175.215 221.151 175.096C221.749 174.978 222.319 174.742 222.826 174.403C223.333 174.063 223.768 173.627 224.106 173.118C224.444 172.61 224.677 172.04 224.794 171.441L235.045 118.556L241.436 119.543C242.19 119.659 242.959 119.477 243.582 119.037C244.204 118.596 244.631 117.93 244.772 117.181L252.566 74.4712C252.636 74.0918 252.63 73.7024 252.549 73.3253C252.467 72.9483 252.313 72.5909 252.093 72.2736C251.874 71.9564 251.594 71.6855 251.27 71.4766C250.946 71.2676 250.584 71.1246 250.204 71.0557L244.464 69.9787L245.216 65.8499C245.432 64.6592 245.169 63.4314 244.486 62.4329C243.802 61.4344 242.752 60.7458 241.564 60.5165L166.755 46.0563C165.567 45.8322 164.338 46.0847 163.335 46.7592C162.331 47.4337 161.634 48.476 161.393 49.6607Z" fill="#5D6A71"/>
<path d="M166.962 51.418L142.236 156.05L219.058 173.656L243.269 69.7613L166.962 51.418Z" fill="#E0E0E0"/>
<path d="M158.028 47.5312L140.422 153.59L218.264 165.971L235.403 60.6829L158.028 47.5312Z" fill="#EBEBEB"/>
<path d="M146.611 53.082L143.328 160.544L222.12 162.424L225.049 55.7842L146.611 53.082Z" fill="white"/>
<path d="M146.614 53.082L225.033 55.685H225.165V55.7842C224.348 85.7438 223.342 122.605 222.255 162.419V162.542H222.132H221.556L143.336 160.652H143.223V160.539C145.235 96.9822 146.591 54.0693 146.624 53.082C146.581 54.0693 145.33 96.9822 143.44 160.548L143.331 160.435L221.551 162.287H222.128L222 162.405C223.106 122.591 224.126 85.7296 224.953 55.7653L225.052 55.8692L146.614 53.082Z" fill="#263238"/>
<path d="M213.999 76.0682C213.999 76.2761 200.441 76.2524 183.728 76.0257C167.014 75.7989 153.461 75.4494 153.461 75.2462C153.461 75.0431 167.019 75.062 183.737 75.2888C200.455 75.5155 214.004 75.8651 213.999 76.0682Z" fill="#263238"/>
<path d="M214.565 85.5768C214.565 85.78 201.011 85.7611 184.293 85.5343C167.575 85.3076 154.027 84.9533 154.031 84.7501C154.036 84.547 167.584 84.5659 184.303 84.7927C201.021 85.0194 214.569 85.3737 214.565 85.5768Z" fill="#263238"/>
<path d="M215.378 114.719C215.378 114.922 201.82 114.903 185.107 114.676C168.393 114.45 154.835 114.1 154.84 113.892C154.845 113.684 168.393 113.708 185.116 113.939C201.839 114.171 215.378 114.516 215.378 114.719Z" fill="#263238"/>
<path d="M215.378 105.483C215.378 105.686 201.82 105.667 185.107 105.436C168.393 105.204 154.835 104.86 154.84 104.656C154.845 104.453 168.393 104.472 185.116 104.699C201.839 104.926 215.378 105.299 215.378 105.483Z" fill="#263238"/>
<path d="M215.378 96.2831C215.378 96.4862 201.82 96.4673 185.107 96.2405C168.393 96.0138 154.835 95.6642 154.84 95.4611C154.845 95.258 168.393 95.2768 185.116 95.5036C201.839 95.7304 215.378 96.0799 215.378 96.2831Z" fill="#263238"/>
<path d="M214.462 125.01C214.462 125.213 200.904 125.194 184.191 124.967C167.477 124.74 153.924 124.391 153.924 124.188C153.924 123.985 167.482 124.003 184.2 124.23C200.918 124.457 214.467 124.806 214.462 125.01Z" fill="#263238"/>
<path d="M214.3 135.124C214.3 135.327 200.742 135.308 184.028 135.081C167.315 134.854 153.757 134.5 153.762 134.297C153.766 134.094 167.315 134.113 184.038 134.34C200.761 134.566 214.3 134.921 214.3 135.124Z" fill="#263238"/>
<path d="M214.112 145.232C214.112 145.435 200.554 145.417 183.836 145.19C167.118 144.963 153.569 144.613 153.574 144.41C153.579 144.207 167.127 144.226 183.85 144.453C200.573 144.68 214.112 145.029 214.112 145.232Z" fill="#263238"/>
<path d="M224.065 78.2456C234.647 78.2456 243.225 69.6587 243.225 59.0662C243.225 48.4737 234.647 39.8867 224.065 39.8867C213.483 39.8867 204.904 48.4737 204.904 59.0662C204.904 69.6587 213.483 78.2456 224.065 78.2456Z" fill="#A996F8"/>
<path opacity="0.5" d="M224.084 78.2456C234.676 78.2456 243.263 69.6587 243.263 59.0662C243.263 48.4737 234.676 39.8867 224.084 39.8867C213.491 39.8867 204.904 48.4737 204.904 59.0662C204.904 69.6587 213.491 78.2456 224.084 78.2456Z" fill="black"/>
<path d="M221.957 78.2456C232.54 78.2456 241.118 69.6587 241.118 59.0662C241.118 48.4737 232.54 39.8867 221.957 39.8867C211.375 39.8867 202.797 48.4737 202.797 59.0662C202.797 69.6587 211.375 78.2456 221.957 78.2456Z" fill="#A996F8"/>
<path d="M222.1 47.7656H221.826C221.284 47.7656 220.844 48.2055 220.844 48.7482V69.3874C220.844 69.9301 221.284 70.37 221.826 70.37H222.1C222.643 70.37 223.083 69.9301 223.083 69.3874V48.7482C223.083 48.2055 222.643 47.7656 222.1 47.7656Z" fill="#FAFAFA"/>
<path d="M210.668 58.9396V59.2041C210.668 59.7494 211.11 60.1914 211.655 60.1914H232.271C232.816 60.1914 233.258 59.7494 233.258 59.2041V58.9396C233.258 58.3943 232.816 57.9522 232.271 57.9522H211.655C211.11 57.9522 210.668 58.3943 210.668 58.9396Z" fill="#FAFAFA"/>
</svg>
