<svg width="94" height="98" viewBox="0 0 94 98" fill="none" xmlns="http://www.w3.org/2000/svg">
<path opacity="0.5" d="M47.4219 98.0007C67.1111 98.0007 83.0724 95.3405 83.0724 92.0589C83.0724 88.7774 67.1111 86.1172 47.4219 86.1172C27.7327 86.1172 11.7715 88.7774 11.7715 92.0589C11.7715 95.3405 27.7327 98.0007 47.4219 98.0007Z" fill="#DEE6F1"/>
<path d="M47.6904 92.0293C72.5513 92.0293 92.7051 71.8755 92.7051 47.0146C92.7051 22.1537 72.5513 2 47.6904 2C22.8295 2 2.67578 22.1537 2.67578 47.0146C2.67578 71.8755 22.8295 92.0293 47.6904 92.0293Z" fill="white"/>
<path d="M54.5348 84.8274C46.2577 84.8275 38.1407 82.5456 31.0762 78.2326C24.0116 73.9196 18.2729 67.7423 14.4908 60.3799C10.7087 53.0174 9.02959 44.7547 9.63809 36.5C10.2466 28.2453 13.1191 20.3181 17.94 13.5898C13.2083 17.7882 9.41499 22.937 6.80749 28.7003C4.19998 34.4635 2.83689 40.7118 2.80714 47.0375C2.77739 53.3631 4.08165 59.624 6.63484 65.4115C9.18802 71.1991 12.9328 76.3833 17.6247 80.626C22.3167 84.8686 27.8504 88.0744 33.8649 90.0341C39.8794 91.9938 46.2395 92.6633 52.5303 91.9992C58.821 91.335 64.901 89.3519 70.3736 86.1794C75.8463 83.0069 80.5885 78.7161 84.291 73.5872C76.0791 80.8443 65.4938 84.8428 54.5348 84.8274Z" fill="#DEE6F1"/>
<path d="M70.7363 8.83594C72.1914 9.73266 73.5943 10.7113 74.9383 11.7672" stroke="#374449" stroke-width="4" stroke-miterlimit="10"/>
<path d="M88.4184 27.2599C76.7536 30.6316 62.9085 32.6027 48.0526 32.6027C33.1966 32.6027 19.3484 30.6316 7.68359 27.2599C8.58675 25.4321 9.61377 23.6682 10.7575 21.9805C21.7505 24.8325 34.4769 26.4677 48.0494 26.4677C61.6219 26.4677 74.3515 24.8357 85.3382 21.9805C86.4854 23.6672 87.5146 25.4312 88.4184 27.2599Z" fill="#A08DC1"/>
<path d="M12.9592 22.5294C12.2025 24.3389 11.5673 26.1969 11.0578 28.0909C9.9265 27.8089 8.79202 27.5332 7.70508 27.2163C8.60551 25.4061 9.62607 23.6582 10.7599 21.9844C11.4846 22.1682 12.2176 22.3499 12.9592 22.5294Z" fill="#8977AF"/>
<path d="M87.3371 26.8966C75.6723 30.2715 61.8272 32.2268 46.9713 32.2268C32.1153 32.2268 18.2671 30.2715 6.60547 26.8966C7.50863 25.0688 8.53564 23.3049 9.67933 21.6172C20.6723 24.4692 33.3988 26.1044 46.9713 26.1044C60.5438 26.1044 73.2734 24.4724 84.2601 21.6172C85.4062 23.304 86.4343 25.068 87.3371 26.8966Z" stroke="#374449" stroke-width="2" stroke-miterlimit="10"/>
<path d="M82.071 18.7885C88.9091 27.2213 92.4601 37.8463 92.0666 48.6961C91.6731 59.5459 87.3616 69.8856 79.9306 77.8009C72.4995 85.7162 62.4521 90.671 51.6487 91.7477C40.8453 92.8245 30.0176 89.9504 21.1704 83.6575C12.3232 77.3646 6.05577 68.0793 3.52846 57.5206C1.00116 46.9619 2.38519 35.8451 7.42432 26.2284C12.4634 16.6118 20.8163 9.14664 30.9365 5.21519C41.0566 1.28375 52.2584 1.15229 62.468 4.84517" stroke="#374449" stroke-width="3" stroke-miterlimit="10"/>
<path d="M32.1949 50.179C32.1947 51.4295 31.7017 52.6295 30.8228 53.519C30.3775 53.064 29.8458 52.7025 29.2589 52.4557C28.672 52.2088 28.0417 52.0817 27.4051 52.0817C26.7684 52.0817 26.1381 52.2088 25.5513 52.4557C24.9644 52.7025 24.4327 53.064 23.9874 53.519C23.4367 52.9581 23.0325 52.2702 22.8104 51.5161C22.5883 50.762 22.5552 49.9649 22.7139 49.195C22.8727 48.4251 23.2184 47.706 23.7206 47.1013C24.2229 46.4966 24.8662 46.0247 25.5939 45.7273C26.3215 45.4298 27.1112 45.316 27.8932 45.3959C28.6753 45.4757 29.4257 45.7467 30.0782 46.185C30.7308 46.6233 31.2655 47.2155 31.6352 47.9092C32.0049 48.603 32.1982 49.377 32.1981 50.1631L32.1949 50.179Z" fill="#374449"/>
<path d="M71.1715 50.179C71.1712 51.4295 70.6782 52.6295 69.7993 53.519C69.354 53.064 68.8223 52.7025 68.2355 52.4557C67.6486 52.2088 67.0183 52.0817 66.3816 52.0817C65.745 52.0817 65.1147 52.2088 64.5278 52.4557C63.9409 52.7025 63.4092 53.064 62.9639 53.519C62.4133 52.9581 62.0091 52.2702 61.787 51.5161C61.5649 50.762 61.5318 49.9649 61.6905 49.195C61.8492 48.4251 62.195 47.706 62.6972 47.1013C63.1994 46.4966 63.8428 46.0247 64.5704 45.7273C65.2981 45.4298 66.0878 45.316 66.8698 45.3959C67.6518 45.4757 68.4022 45.7467 69.0548 46.185C69.7074 46.6233 70.2421 47.2155 70.6117 47.9092C70.9814 48.603 71.1747 49.377 71.1746 50.1631L71.1715 50.179Z" fill="#374449"/>
<path d="M40.6081 71.2202C41.7168 69.8201 43.1243 68.6855 44.7277 67.8991C48.6857 65.9978 52.1525 68.1336 54.7384 71.2202C55.9204 72.6272 57.9263 70.5864 56.7538 69.2047C53.7053 65.5636 49.2688 63.114 44.5059 64.9298C42.1884 65.8077 40.1441 67.2824 38.58 69.2047C37.455 70.6308 39.4578 72.662 40.5954 71.2202H40.6081Z" fill="#374449"/>
<path d="M66.9972 37.2958C67.9257 40.1478 69.0063 42.9998 71.551 44.7966C72.6764 45.5673 73.9579 46.0804 75.3042 46.2995C76.6505 46.5185 78.0285 46.4382 79.3402 46.0642C81.1085 45.5762 80.3575 42.8255 78.5829 43.3136C77.6308 43.5921 76.6271 43.6455 75.6509 43.4695C74.6747 43.2936 73.7528 42.893 72.958 42.2995C71.139 40.9147 70.4229 38.6172 69.7479 36.5352C69.1806 34.7987 66.4268 35.5402 66.9972 37.2926V37.2958Z" fill="#374449"/>
<path d="M24.0339 36.5403C23.3684 38.6287 22.6427 40.9166 20.8333 42.3046C20.0384 42.8979 19.1165 43.2983 18.1403 43.4743C17.1642 43.6503 16.1605 43.597 15.2084 43.3187C13.437 42.8307 12.6733 45.5813 14.4511 46.0693C15.7628 46.4436 17.1408 46.524 18.4872 46.3049C19.8335 46.0858 21.1149 45.5726 22.2403 44.8017C24.7754 43.0113 25.8655 40.1497 26.794 37.3009C27.3645 35.5516 24.6107 34.8038 24.0434 36.5435L24.0339 36.5403Z" fill="#374449"/>
<path d="M27.2033 57.1415C27.3934 58.8844 26.9054 60.5988 25.3907 60.3516C21.6735 59.7432 25.4921 53.8426 25.5808 53.887C26.4459 54.3053 27.048 55.7345 27.2033 57.1415Z" fill="#9ADCF9"/>
</svg>
