<svg width="20" height="21" viewBox="0 0 20 21" fill="none" xmlns="http://www.w3.org/2000/svg">
<path d="M15 16.2023H14.3667C13.7 16.2023 13.0667 16.4607 12.6 16.9273L11.175 18.3357C10.525 18.9773 9.46668 18.9773 8.81668 18.3357L7.39166 16.9273C6.925 16.4607 6.28333 16.2023 5.625 16.2023H5C3.61667 16.2023 2.5 15.094 2.5 13.7273V4.62734C2.5 3.26068 3.61667 2.15234 5 2.15234H15C16.3833 2.15234 17.5 3.26068 17.5 4.62734V13.719C17.5 15.0857 16.3833 16.2023 15 16.2023Z" stroke="#DAD8D8" stroke-width="1.5" stroke-miterlimit="10" stroke-linecap="round" stroke-linejoin="round"/>
<path d="M10.0579 7.94531C10.0246 7.94531 9.97455 7.94531 9.93288 7.94531C9.05788 7.91198 8.36621 7.20365 8.36621 6.32031C8.36621 5.42031 9.09122 4.69531 9.99122 4.69531C10.8912 4.69531 11.6162 5.42865 11.6162 6.32031C11.6246 7.20365 10.9329 7.92031 10.0579 7.94531Z" stroke="#DAD8D8" stroke-width="1.5" stroke-linecap="round" stroke-linejoin="round"/>
<path d="M7.7082 10.4531C6.59987 11.1948 6.59987 12.4031 7.7082 13.1448C8.96654 13.9865 11.0332 13.9865 12.2915 13.1448C13.3999 12.4031 13.3999 11.1948 12.2915 10.4531C11.0332 9.61979 8.97487 9.61979 7.7082 10.4531Z" stroke="#DAD8D8" stroke-width="1.5" stroke-linecap="round" stroke-linejoin="round"/>
</svg>
