<svg width="18" height="14" viewBox="0 0 18 14" fill="none" xmlns="http://www.w3.org/2000/svg">
<path d="M6.925 10L9 8.4L11.025 9.95L10.25 7.45L12.375 5.775H9.825L9 3.225L8.175 5.775H5.625L7.7 7.45L6.925 10ZM1 14C0.733333 14 0.5 13.9 0.3 13.7C0.0999999 13.5 0 13.2667 0 13V9.8C0.583333 9.58333 1.06267 9.22067 1.438 8.712C1.81267 8.204 2 7.63333 2 7C2 6.36667 1.81267 5.79567 1.438 5.287C1.06267 4.779 0.583333 4.41667 0 4.2V1C0 0.733333 0.0999999 0.5 0.3 0.3C0.5 0.1 0.733333 0 1 0H17C17.2667 0 17.5 0.1 17.7 0.3C17.9 0.5 18 0.733333 18 1V4.2C17.4167 4.41667 16.9373 4.779 16.562 5.287C16.1873 5.79567 16 6.36667 16 7C16 7.63333 16.1873 8.204 16.562 8.712C16.9373 9.22067 17.4167 9.58333 18 9.8V13C18 13.2667 17.9 13.5 17.7 13.7C17.5 13.9 17.2667 14 17 14H1ZM1 13H17V10.45C16.3833 10.0833 15.896 9.596 15.538 8.988C15.1793 8.37933 15 7.71667 15 7C15 6.28333 15.1793 5.62067 15.538 5.012C15.896 4.404 16.3833 3.91667 17 3.55V1H1V3.55C1.61667 3.91667 2.10433 4.404 2.463 5.012C2.821 5.62067 3 6.28333 3 7C3 7.71667 2.821 8.37933 2.463 8.988C2.10433 9.596 1.61667 10.0833 1 10.45V13Z" fill="#9A9898"/>
</svg>
